<svg xmlns="http://www.w3.org/2000/svg" width="843" height="547" viewBox="0 0 843 547">
<g>
<path d="M 467.50 455.19 C448.24,457.83 397.41,458.57 374.50,456.54 C277.96,448.00 207.32,418.51 166.28,369.61 C125.95,321.55 118.04,266.93 143.95,215.29 C175.01,153.36 248.44,114.36 359.00,101.05 C387.80,97.58 404.15,96.71 427.00,97.43 C478.49,99.04 527.58,106.15 568.15,117.88 L 574.80 119.80 L 584.50 104.90 C589.83,96.71 594.65,90.00 595.20,90.00 C596.11,90.00 655.97,118.10 658.64,119.78 C659.50,120.32 679.00,212.70 679.00,216.20 C679.00,216.55 673.26,221.09 666.25,226.30 C636.80,248.15 610.50,268.22 610.50,268.84 C610.50,269.20 615.45,273.99 621.50,279.48 C631.90,288.91 665.05,319.19 691.50,343.43 C698.10,349.47 703.63,354.71 703.79,355.08 C704.22,356.05 689.61,369.45 681.00,375.97 C633.42,412.05 567.53,438.63 495.00,451.00 C488.12,452.17 475.75,454.06 467.50,455.19 ZM 392.00 441.90 C415.24,443.19 428.39,443.09 446.00,441.48 C527.24,434.04 598.70,411.56 653.44,376.23 C662.81,370.18 679.38,357.81 680.47,356.05 C680.74,355.61 673.43,348.35 664.23,339.91 C655.03,331.48 642.71,320.15 636.85,314.74 L 626.20 304.91 L 614.85 312.35 C586.54,330.92 551.88,345.60 514.50,354.86 C503.49,357.59 490.38,360.00 486.56,360.00 C485.16,360.00 485.00,352.00 485.00,282.36 L 485.00 204.72 L 492.75 205.42 C521.47,208.01 573.78,221.62 608.28,235.46 C614.76,238.06 620.70,239.95 621.47,239.65 C622.25,239.35 631.61,232.55 642.29,224.54 L 661.71 209.97 L 653.86 170.79 C649.54,149.24 645.67,131.29 645.25,130.90 C643.48,129.22 601.48,109.98 600.46,110.38 C599.84,110.61 595.38,116.93 590.54,124.40 C585.71,131.88 581.21,138.00 580.55,138.00 C579.89,138.00 576.19,136.92 572.32,135.61 C523.29,118.93 438.18,109.48 382.00,114.48 C302.87,121.51 243.88,139.98 202.00,170.83 C191.31,178.70 173.47,197.09 166.87,207.02 C156.59,222.52 150.14,237.55 146.40,254.73 C144.35,264.18 144.05,285.88 145.86,294.50 C152.35,325.46 171.39,356.76 196.70,378.08 C241.66,415.96 306.41,437.11 392.00,441.90 ZM 358.00 282.00 L 358.00 360.00 L 355.25 359.91 C346.60,359.63 323.51,353.90 308.50,348.31 C281.67,338.31 260.70,321.76 252.17,303.83 C246.90,292.75 245.62,286.73 246.25,275.81 C246.69,268.10 247.26,265.85 250.46,259.39 C260.89,238.28 288.81,220.78 329.00,210.15 C338.12,207.74 355.51,204.00 357.61,204.00 C357.82,204.00 358.00,239.10 358.00,282.00 ZM 450.76 362.36 C446.68,363.11 407.25,363.92 400.50,363.40 C397.75,363.18 393.59,362.75 391.25,362.44 L 387.00 361.88 L 387.00 295.97 L 420.25 296.24 L 453.50 296.50 L 454.03 361.77 ZM 454.00 203.09 L 454.00 266.00 L 387.23 266.00 L 386.63 263.75 C386.30,262.51 386.02,248.32 386.01,232.22 C386.00,205.25 386.14,202.88 387.75,202.25 C390.20,201.29 445.68,201.33 450.25,202.30 Z" fill="rgb(6,48,135)"/>
<path d="M 0.00 2.12 C0.00,3.79 0.29,4.01 1.36,3.12 C2.36,2.29 112.82,2.06 422.86,2.25 C758.42,2.45 842.99,2.25 843.00,1.25 L 843.00 547.00 L 0.00 547.00 L 0.00 2.12 ZM 2.00 4.00 L 2.00 543.00 L 841.00 543.00 L 841.00 4.00 ZM 421.50 547.00 C758.03,547.00 843.00,546.75 843.00,545.75 C843.00,544.75 758.03,544.50 421.50,544.50 C84.98,544.50 0.01,544.75 0.00,545.75 C0.00,546.75 84.97,547.00 421.50,547.00 ZM 843.00 0.00 L 843.00 1.25 C843.00,0.25 758.03,0.00 421.50,0.00 Z" fill="rgb(18,18,18)"/>
<path d="M 466.58 427.63 C451.09,429.49 396.64,430.32 381.50,428.92 C312.72,422.59 258.12,404.20 213.05,372.21 C201.24,363.83 187.14,349.89 180.19,339.74 C173.34,329.76 165.81,313.71 163.09,303.34 C155.06,272.72 161.65,237.92 180.06,213.61 C200.65,186.42 240.97,159.88 285.00,144.53 C315.32,133.96 343.24,128.77 380.17,126.81 C442.07,123.53 521.68,133.41 574.72,150.95 C579.79,152.63 584.38,154.00 584.91,154.00 C585.45,154.00 589.58,148.13 594.10,140.96 C598.62,133.79 602.70,127.69 603.16,127.40 C603.95,126.91 633.71,139.43 635.15,140.86 C635.51,141.21 638.35,155.45 641.46,172.50 C644.57,189.55 647.32,204.40 647.58,205.50 C647.91,206.94 647.12,208.11 644.77,209.65 C642.97,210.84 636.86,215.00 631.20,218.90 C625.53,222.81 620.57,226.00 620.17,226.00 C619.77,226.00 615.75,224.44 611.24,222.54 C606.72,220.64 597.96,217.30 591.77,215.13 C510.03,186.45 425.60,179.16 342.08,193.56 C272.89,205.49 232.57,233.94 230.28,272.45 C229.56,284.44 231.70,294.20 237.65,306.08 C257.03,344.80 304.69,369.52 373.38,376.50 C394.46,378.65 433.33,378.66 454.50,376.54 C496.64,372.31 538.12,362.79 572.62,349.43 C585.92,344.27 608.94,332.82 618.47,326.61 L 626.74 321.22 L 643.51 338.01 C654.99,349.50 660.10,355.29 659.70,356.33 C658.46,359.57 634.85,374.05 612.91,385.05 C568.25,407.42 521.43,421.04 466.58,427.63 Z" fill="rgb(201,9,42)"/>
<path d="M -0.00 545.75 C-0.00,544.75 84.97,544.50 421.50,544.50 C758.03,544.50 843.00,544.75 843.00,545.75 C843.00,546.75 758.03,547.00 421.50,547.00 C84.97,547.00 -0.00,546.75 -0.00,545.75 ZM 2.00 273.50 L 2.00 4.00 L 421.50 4.00 L 841.00 4.00 L 841.00 273.50 L 841.00 543.00 L 421.50 543.00 L 2.00 543.00 L 2.00 273.50 ZM 467.50 455.19 C475.75,454.06 488.12,452.17 495.00,451.00 C567.53,438.63 633.42,412.05 681.00,375.97 C689.61,369.45 704.22,356.05 703.79,355.08 C703.63,354.71 698.10,349.47 691.50,343.43 C665.05,319.19 631.90,288.91 621.50,279.48 C615.45,273.99 610.50,269.20 610.50,268.84 C610.50,268.22 636.80,248.15 666.25,226.30 C673.26,221.09 679.00,216.55 679.00,216.20 C679.00,212.70 659.50,120.32 658.64,119.78 C655.97,118.10 596.11,90.00 595.20,90.00 C594.65,90.00 589.83,96.71 584.50,104.90 L 574.80 119.80 L 568.15 117.88 C527.58,106.15 478.49,99.04 427.00,97.43 C404.15,96.71 387.80,97.58 359.00,101.05 C248.44,114.36 175.01,153.36 143.95,215.29 C118.04,266.93 125.95,321.55 166.28,369.61 C207.32,418.51 277.96,448.00 374.50,456.54 C397.41,458.57 448.24,457.83 467.50,455.19 ZM 0.00 2.12 L 0.00 0.00 L 421.50 0.00 C758.03,0.00 843.00,0.25 843.00,1.25 C843.00,2.25 758.44,2.45 422.86,2.25 C112.82,2.06 2.36,2.29 1.36,3.12 C0.29,4.01 0.00,3.79 0.00,2.12 ZM 392.00 441.90 C306.41,437.11 241.66,415.96 196.70,378.08 C171.39,356.76 152.35,325.46 145.86,294.50 C144.05,285.88 144.35,264.18 146.40,254.73 C150.14,237.55 156.59,222.52 166.87,207.02 C173.47,197.09 191.31,178.70 202.00,170.83 C243.88,139.98 302.87,121.51 382.00,114.48 C438.18,109.48 523.29,118.93 572.32,135.61 C576.19,136.92 579.89,138.00 580.55,138.00 C581.21,138.00 585.71,131.88 590.54,124.40 C595.38,116.93 599.84,110.61 600.46,110.38 C601.48,109.98 643.48,129.22 645.25,130.90 C645.67,131.29 649.54,149.24 653.86,170.79 L 661.71 209.97 L 642.29 224.54 C631.61,232.55 622.25,239.35 621.47,239.65 C620.70,239.95 614.76,238.06 608.28,235.46 C573.78,221.62 521.47,208.01 492.75,205.42 L 485.00 204.72 L 485.00 282.36 C485.00,352.00 485.16,360.00 486.56,360.00 C490.38,360.00 503.49,357.59 514.50,354.86 C551.88,345.60 586.54,330.92 614.85,312.35 L 626.20 304.91 L 636.85 314.74 C642.71,320.15 655.03,331.48 664.23,339.91 C673.43,348.35 680.74,355.61 680.47,356.05 C679.38,357.81 662.81,370.18 653.44,376.23 C598.70,411.56 527.24,434.04 446.00,441.48 C428.39,443.09 415.24,443.19 392.00,441.90 ZM 466.58 427.63 C521.43,421.04 568.25,407.42 612.91,385.05 C634.85,374.05 658.46,359.57 659.70,356.33 C660.10,355.29 654.99,349.50 643.51,338.01 L 626.74 321.22 L 618.47 326.61 C608.94,332.82 585.92,344.27 572.62,349.43 C538.12,362.79 496.64,372.31 454.50,376.54 C433.33,378.66 394.46,378.65 373.38,376.50 C304.69,369.52 257.03,344.80 237.65,306.08 C231.70,294.20 229.56,284.44 230.28,272.45 C232.57,233.94 272.89,205.49 342.08,193.56 C425.60,179.16 510.03,186.45 591.77,215.13 C597.96,217.30 606.72,220.64 611.24,222.54 C615.75,224.44 619.77,226.00 620.17,226.00 C620.57,226.00 625.53,222.81 631.20,218.90 C636.86,215.00 642.97,210.84 644.77,209.65 C647.12,208.11 647.91,206.94 647.58,205.50 C647.32,204.40 644.57,189.55 641.46,172.50 C638.35,155.45 635.51,141.21 635.15,140.86 C633.71,139.43 603.95,126.91 603.16,127.40 C602.70,127.69 598.62,133.79 594.10,140.96 C589.58,148.13 585.45,154.00 584.91,154.00 C584.38,154.00 579.79,152.63 574.72,150.95 C521.68,133.41 442.07,123.53 380.17,126.81 C343.24,128.77 315.32,133.96 285.00,144.53 C240.97,159.88 200.65,186.42 180.06,213.61 C161.65,237.92 155.06,272.72 163.09,303.34 C165.81,313.71 173.34,329.76 180.19,339.74 C187.14,349.89 201.24,363.83 213.05,372.21 C258.12,404.20 312.72,422.59 381.50,428.92 C396.64,430.32 451.09,429.49 466.58,427.63 ZM 450.76 362.36 L 454.03 361.77 L 453.76 329.13 L 453.50 296.50 L 420.25 296.24 L 387.00 295.97 L 387.00 328.93 L 387.00 361.88 L 391.25 362.44 C393.59,362.75 397.75,363.18 400.50,363.40 C407.25,363.92 446.68,363.11 450.76,362.36 ZM 358.00 282.00 C358.00,239.10 357.82,204.00 357.61,204.00 C355.51,204.00 338.12,207.74 329.00,210.15 C288.81,220.78 260.89,238.28 250.46,259.39 C247.26,265.85 246.69,268.10 246.25,275.81 C245.62,286.73 246.90,292.75 252.17,303.83 C260.70,321.76 281.67,338.31 308.50,348.31 C323.51,353.90 346.60,359.63 355.25,359.91 L 358.00 360.00 L 358.00 282.00 ZM 454.00 234.55 L 454.00 203.09 L 450.25 202.30 C445.68,201.33 390.20,201.29 387.75,202.25 C386.14,202.88 386.00,205.25 386.01,232.22 C386.02,248.32 386.30,262.51 386.63,263.75 L 387.23 266.00 L 420.62 266.00 L 454.00 266.00 L 454.00 234.55 Z" fill="rgb(253,254,254)"/>
</g>
</svg>