<svg xmlns="http://www.w3.org/2000/svg" width="843" height="547" viewBox="0 0 843 547">
<g>
<path d="M 307.02 422.50 L 306.50 476.50 L 195.50 476.74 C134.45,476.87 83.91,476.60 83.20,476.15 C82.14,475.47 81.97,456.27 82.29,372.91 C82.67,273.79 82.75,270.17 84.77,260.19 C92.44,222.39 107.13,190.59 130.83,160.50 C138.40,150.89 158.73,130.88 169.01,122.93 C208.37,92.45 254.91,74.02 310.08,67.05 C326.77,64.95 359.19,64.04 418.18,64.02 L 477.87 64.00 L 478.55 66.25 C479.68,69.97 488.51,92.80 500.49,123.00 C506.72,138.68 515.27,160.27 519.50,171.00 C523.73,181.73 532.28,203.32 538.49,219.00 C544.71,234.68 553.24,256.27 557.45,267.00 C561.66,277.73 565.72,287.85 566.48,289.50 C567.23,291.15 569.01,295.65 570.43,299.50 C571.85,303.35 573.45,307.40 573.98,308.50 C574.51,309.60 575.79,312.75 576.84,315.50 C577.88,318.25 581.98,328.60 585.95,338.50 C589.91,348.40 594.30,359.40 595.69,362.94 C597.08,366.48 598.69,370.41 599.27,371.69 L 600.32 374.00 L 729.00 374.00 L 729.00 477.00 L 564.75 476.98 C474.41,476.98 399.96,476.62 399.29,476.20 C398.38,475.62 398.01,462.20 397.79,420.97 L 397.50 366.50 L 393.83 358.81 C386.26,342.97 374.84,334.76 357.19,332.48 C350.15,331.57 339.98,333.54 332.59,337.23 C325.08,340.99 316.50,349.07 313.28,355.43 C307.29,367.26 307.59,364.07 307.02,422.50 ZM 97.67 461.33 C98.03,461.70 142.11,462.00 195.61,462.00 L 292.89 462.00 L 293.23 413.25 C293.54,366.68 293.65,364.25 295.65,358.98 C304.20,336.36 320.80,322.28 343.52,318.36 C373.26,313.22 400.68,330.66 410.61,361.00 C412.21,365.91 412.44,371.60 412.76,414.25 L 413.12 462.00 L 472.56 462.00 C520.23,462.00 532.00,461.75 532.00,460.72 C532.00,460.01 529.60,453.38 526.67,445.97 C523.74,438.56 517.46,422.60 512.71,410.50 C502.09,383.40 489.55,351.53 471.01,304.50 C454.68,263.06 448.69,247.82 439.95,225.50 C436.50,216.70 427.72,194.43 420.44,176.00 C394.58,110.55 384.80,85.43 383.54,81.25 C382.88,79.05 382.55,79.00 368.18,79.02 C304.16,79.13 260.53,88.08 216.71,110.11 C153.23,142.03 108.61,201.77 98.41,268.50 C97.32,275.64 97.03,296.46 97.02,369.08 C97.01,419.45 97.30,460.97 97.67,461.33 ZM 560.36 460.26 C560.91,461.91 565.30,462.00 638.72,461.76 L 716.50 461.50 L 716.50 390.50 L 652.37 390.24 C602.73,390.04 588.00,389.70 587.21,388.74 C586.19,387.51 579.86,371.76 578.46,367.00 C577.77,364.67 560.38,320.15 554.05,304.50 C552.49,300.65 549.32,292.77 547.01,287.00 C544.71,281.23 541.52,273.35 539.94,269.50 C537.31,263.09 529.86,244.12 520.52,220.00 C518.49,214.77 513.92,203.07 510.35,194.00 C506.78,184.93 503.37,176.15 502.78,174.50 C502.19,172.85 501.11,170.15 500.40,168.50 C499.68,166.85 497.69,161.90 495.97,157.50 C494.25,153.10 492.22,148.15 491.46,146.50 C490.32,144.01 479.30,116.20 468.29,88.00 C466.89,84.43 465.34,81.06 464.85,80.52 C463.81,79.40 416.15,78.95 415.47,80.05 C415.04,80.74 423.91,104.59 436.27,136.00 C442.93,152.93 457.56,190.80 461.56,201.50 C471.66,228.46 489.21,274.14 499.97,301.50 C507.78,321.35 515.79,342.27 532.50,386.50 C537.28,399.15 543.67,416.02 546.70,424.00 C555.63,447.49 559.74,458.39 560.36,460.26 ZM 734.93 345.64 C702.30,356.88 668.44,328.53 673.91,294.54 C680.00,256.70 727.05,241.91 753.02,269.68 C762.24,279.53 766.00,288.76 766.00,301.50 C766.00,321.52 753.54,339.23 734.93,345.64 Z" fill="rgb(1,1,131)"/>
<path d="M 0.00 0.00 L 843.00 0.00 L 843.00 547.00 L 0.00 547.00 ZM 2.00 4.00 L 2.00 543.00 L 841.00 543.00 L 841.00 4.00 ZM 0.00 545.75 C0.00,546.75 84.97,547.00 421.50,547.00 C758.03,547.00 843.00,546.75 843.00,545.75 C843.00,544.75 758.03,544.50 421.50,544.50 C84.97,544.50 0.00,544.75 0.00,545.75 ZM 0.00 1.25 C0.00,2.25 84.97,2.50 421.50,2.50 C758.03,2.50 843.00,2.25 843.00,1.25 C843.00,0.25 758.03,0.00 421.50,0.00 C84.97,0.00 0.00,0.25 0.00,1.25 Z" fill="rgb(49,50,79)"/>
<path d="M 283.28 408.75 L 282.85 452.00 L 105.93 452.00 L 106.23 361.75 C106.53,271.98 106.55,271.44 108.83,261.00 C115.23,231.64 128.81,202.17 146.85,178.50 C154.80,168.06 175.09,148.14 186.66,139.40 C229.00,107.43 278.23,91.59 345.03,88.42 L 359.55 87.73 L 368.72 111.12 C373.77,123.98 380.84,142.04 384.45,151.25 C396.08,180.99 403.94,200.97 414.03,226.50 C436.09,282.31 449.14,315.45 455.99,333.00 C459.96,343.17 467.48,362.30 472.71,375.50 C477.93,388.70 486.17,409.62 491.02,422.00 C495.87,434.38 500.56,446.19 501.44,448.25 L 503.03 452.00 L 422.10 452.00 L 421.48 364.50 L 418.76 356.50 C415.04,345.52 409.78,337.02 401.50,328.61 C393.35,320.34 384.73,315.01 373.50,311.31 C366.56,309.02 363.78,308.66 352.50,308.62 C340.81,308.58 338.69,308.85 331.50,311.34 C313.23,317.68 298.74,330.37 290.60,347.18 C288.12,352.31 285.55,358.52 284.89,361.00 C284.09,364.02 283.56,379.74 283.28,408.75 ZM 650.25 399.84 L 707.00 400.00 L 707.00 453.00 L 637.56 453.00 C599.37,453.00 567.91,452.66 567.66,452.25 C567.40,451.84 564.41,444.52 561.01,436.00 C557.61,427.48 552.84,415.68 550.42,409.78 C547.99,403.89 546.00,398.85 546.00,398.60 C546.00,398.34 542.57,389.44 538.38,378.82 C534.19,368.19 529.30,355.67 527.51,351.00 C510.63,306.89 500.33,280.11 497.52,273.00 C479.75,228.08 458.00,172.21 458.00,171.48 C458.00,171.25 455.56,164.86 452.57,157.28 C442.57,131.88 427.00,90.87 427.00,89.93 C427.00,89.39 433.98,89.00 443.50,89.00 C453.18,89.00 460.00,89.39 460.00,89.94 C460.00,90.46 462.96,98.45 466.59,107.69 C470.21,116.94 475.62,130.80 478.60,138.50 C481.59,146.20 484.90,154.52 485.98,157.00 C487.05,159.48 491.79,171.40 496.52,183.50 C501.25,195.60 506.63,209.32 508.48,214.00 C515.15,230.84 527.39,262.03 538.12,289.50 C544.13,304.90 549.46,318.40 549.96,319.50 C551.46,322.84 561.51,348.59 567.51,364.50 C570.62,372.75 574.95,384.08 577.13,389.68 L 581.10 399.86 L 587.30 399.77 C590.71,399.73 619.04,399.76 650.25,399.84 Z" fill="rgb(215,40,17)"/>
<path d="M 0.00 545.75 C0.00,544.75 84.97,544.50 421.50,544.50 C758.03,544.50 843.00,544.75 843.00,545.75 C843.00,546.75 758.03,547.00 421.50,547.00 C84.97,547.00 0.00,546.75 0.00,545.75 ZM 2.00 273.50 L 2.00 4.00 L 421.50 4.00 L 841.00 4.00 L 841.00 273.50 L 841.00 543.00 L 421.50 543.00 L 2.00 543.00 L 2.00 273.50 ZM 307.02 422.50 C307.59,364.07 307.29,367.26 313.28,355.43 C316.50,349.07 325.08,340.99 332.59,337.23 C339.98,333.54 350.15,331.57 357.19,332.48 C374.84,334.76 386.26,342.97 393.83,358.81 L 397.50 366.50 L 397.79 420.97 C398.01,462.20 398.38,475.62 399.29,476.20 C399.96,476.62 474.41,476.98 564.75,476.98 L 729.00 477.00 L 729.00 425.50 L 729.00 374.00 L 664.66 374.00 L 600.32 374.00 L 599.27 371.69 C598.69,370.41 597.08,366.48 595.69,362.94 C594.30,359.40 589.91,348.40 585.95,338.50 C581.98,328.60 577.88,318.25 576.84,315.50 C575.79,312.75 574.51,309.60 573.98,308.50 C573.45,307.40 571.85,303.35 570.43,299.50 C569.01,295.65 567.23,291.15 566.48,289.50 C565.72,287.85 561.66,277.73 557.45,267.00 C553.24,256.27 544.71,234.68 538.49,219.00 C532.28,203.32 523.73,181.73 519.50,171.00 C515.27,160.27 506.72,138.68 500.49,123.00 C488.51,92.80 479.68,69.97 478.55,66.25 L 477.87 64.00 L 418.18 64.02 C359.19,64.04 326.77,64.95 310.08,67.05 C254.91,74.02 208.37,92.45 169.01,122.93 C158.73,130.88 138.40,150.89 130.83,160.50 C107.13,190.59 92.44,222.39 84.77,260.19 C82.75,270.17 82.67,273.79 82.29,372.91 C81.97,456.27 82.14,475.47 83.20,476.15 C83.91,476.60 134.45,476.87 195.50,476.74 L 306.50 476.50 L 307.02 422.50 ZM 734.93 345.64 C753.54,339.23 766.00,321.52 766.00,301.50 C766.00,288.76 762.24,279.53 753.02,269.68 C727.05,241.91 680.00,256.70 673.91,294.54 C668.44,328.53 702.30,356.88 734.93,345.64 ZM 0.00 1.25 C0.00,0.25 84.97,0.00 421.50,0.00 C758.03,0.00 843.00,0.25 843.00,1.25 C843.00,2.25 758.03,2.50 421.50,2.50 C84.97,2.50 0.00,2.25 0.00,1.25 ZM 97.67 461.33 C97.30,460.97 97.01,419.45 97.02,369.08 C97.03,296.46 97.32,275.64 98.41,268.50 C108.61,201.77 153.23,142.03 216.71,110.11 C260.53,88.08 304.16,79.13 368.18,79.02 C382.55,79.00 382.88,79.05 383.54,81.25 C384.80,85.43 394.58,110.55 420.44,176.00 C427.72,194.43 436.50,216.70 439.95,225.50 C448.69,247.82 454.68,263.06 471.01,304.50 C489.55,351.53 502.09,383.40 512.71,410.50 C517.46,422.60 523.74,438.56 526.67,445.97 C529.60,453.38 532.00,460.01 532.00,460.72 C532.00,461.75 520.23,462.00 472.56,462.00 L 413.12 462.00 L 412.76 414.25 C412.44,371.60 412.21,365.91 410.61,361.00 C400.68,330.66 373.26,313.22 343.52,318.36 C320.80,322.28 304.20,336.36 295.65,358.98 C293.65,364.25 293.54,366.68 293.23,413.25 L 292.89 462.00 L 195.61 462.00 C142.11,462.00 98.03,461.70 97.67,461.33 ZM 283.28 408.75 C283.56,379.74 284.09,364.02 284.89,361.00 C285.55,358.52 288.12,352.31 290.60,347.18 C298.74,330.37 313.23,317.68 331.50,311.34 C338.69,308.85 340.81,308.58 352.50,308.62 C363.78,308.66 366.56,309.02 373.50,311.31 C384.73,315.01 393.35,320.34 401.50,328.61 C409.78,337.02 415.04,345.52 418.76,356.50 L 421.48 364.50 L 421.79 408.25 L 422.10 452.00 L 462.56 452.00 L 503.03 452.00 L 501.44 448.25 C500.56,446.19 495.87,434.38 491.02,422.00 C486.17,409.62 477.93,388.70 472.71,375.50 C467.48,362.30 459.96,343.17 455.99,333.00 C449.14,315.45 436.09,282.31 414.03,226.50 C403.94,200.97 396.08,180.99 384.45,151.25 C380.84,142.04 373.77,123.98 368.72,111.12 L 359.55 87.73 L 345.03 88.42 C278.23,91.59 229.00,107.43 186.66,139.40 C175.09,148.14 154.80,168.06 146.85,178.50 C128.81,202.17 115.23,231.64 108.83,261.00 C106.55,271.44 106.53,271.98 106.23,361.75 L 105.93 452.00 L 194.39 452.00 L 282.85 452.00 L 283.28 408.75 ZM 560.36 460.26 C559.74,458.39 555.63,447.49 546.70,424.00 C543.67,416.02 537.28,399.15 532.50,386.50 C515.79,342.27 507.78,321.35 499.97,301.50 C489.21,274.14 471.66,228.46 461.56,201.50 C457.56,190.80 442.93,152.93 436.27,136.00 C423.91,104.59 415.04,80.74 415.47,80.05 C416.15,78.95 463.81,79.40 464.85,80.52 C465.34,81.06 466.89,84.43 468.29,88.00 C479.30,116.20 490.32,144.01 491.46,146.50 C492.22,148.15 494.25,153.10 495.97,157.50 C497.69,161.90 499.68,166.85 500.40,168.50 C501.11,170.15 502.19,172.85 502.78,174.50 C503.37,176.15 506.78,184.93 510.35,194.00 C513.92,203.07 518.49,214.77 520.52,220.00 C529.86,244.12 537.31,263.09 539.94,269.50 C541.52,273.35 544.71,281.23 547.01,287.00 C549.32,292.77 552.49,300.65 554.05,304.50 C560.38,320.15 577.77,364.67 578.46,367.00 C579.86,371.76 586.19,387.51 587.21,388.74 C588.00,389.70 602.73,390.04 652.37,390.24 L 716.50 390.50 L 716.50 426.00 L 716.50 461.50 L 638.72 461.76 C565.30,462.00 560.91,461.91 560.36,460.26 ZM 707.00 426.50 L 707.00 400.00 L 650.25 399.84 C619.04,399.76 590.71,399.73 587.30,399.77 L 581.10 399.86 L 577.13 389.68 C574.95,384.08 570.62,372.75 567.51,364.50 C561.51,348.59 551.46,322.84 549.96,319.50 C549.46,318.40 544.13,304.90 538.12,289.50 C527.39,262.03 515.15,230.84 508.48,214.00 C506.63,209.32 501.25,195.60 496.52,183.50 C491.79,171.40 487.05,159.48 485.98,157.00 C484.90,154.52 481.59,146.20 478.60,138.50 C475.62,130.80 470.21,116.94 466.59,107.69 C462.96,98.45 460.00,90.46 460.00,89.94 C460.00,89.39 453.18,89.00 443.50,89.00 C433.98,89.00 427.00,89.39 427.00,89.93 C427.00,90.87 442.57,131.88 452.57,157.28 C455.56,164.86 458.00,171.25 458.00,171.48 C458.00,172.21 479.75,228.08 497.52,273.00 C500.33,280.11 510.63,306.89 527.51,351.00 C529.30,355.67 534.19,368.19 538.38,378.82 C542.57,389.44 546.00,398.34 546.00,398.60 C546.00,398.85 547.99,403.89 550.42,409.78 C552.84,415.68 557.61,427.48 561.01,436.00 C564.41,444.52 567.40,451.84 567.66,452.25 C567.91,452.66 599.37,453.00 637.56,453.00 L 707.00 453.00 L 707.00 426.50 Z" fill="rgb(253,253,253)"/>
</g>
</svg>