<svg xmlns="http://www.w3.org/2000/svg" width="843" height="547" viewBox="0 0 843 547">
<g>
<path d="M 360.11 464.94 C343.39,468.59 325.54,468.30 309.50,464.13 C268.16,453.36 232.04,421.05 218.81,383.00 C213.52,367.80 213.68,370.81 213.28,277.25 C213.08,229.26 213.19,190.00 213.52,190.00 C213.86,190.00 216.02,191.29 218.32,192.87 C224.19,196.89 235.79,202.60 246.08,206.53 C265.79,214.05 276.83,221.16 282.20,229.79 L 284.50 233.50 L 285.50 389.50 L 382.50 389.50 L 383.02 286.00 L 460.98 286.00 L 461.50 389.50 L 558.94 390.02 L 559.22 312.26 L 559.50 234.50 L 561.72 230.36 C566.17,222.04 577.10,214.88 597.53,206.91 C611.39,201.51 618.55,198.07 624.68,193.87 C626.98,192.29 629.34,191.00 629.93,191.00 C630.68,191.00 631.00,215.97 631.00,274.87 C631.00,365.98 630.91,367.79 625.38,383.16 C610.62,424.25 572.89,456.50 529.00,465.52 C517.76,467.83 498.38,467.83 487.04,465.51 C465.38,461.08 444.19,450.99 428.63,437.68 C424.60,434.23 422.38,432.95 421.54,433.58 C420.87,434.09 416.34,437.51 411.47,441.19 C396.34,452.61 378.27,460.97 360.11,464.94 Z" fill="rgb(0,105,54)"/>
<path d="M 0.00 2.12 C0.00,3.79 0.29,4.01 1.36,3.12 C2.36,2.29 112.82,2.06 422.86,2.25 C758.42,2.45 842.99,2.25 843.00,1.25 L 843.00 547.00 L 0.00 547.00 L 0.00 2.12 ZM 2.00 4.00 L 2.00 543.00 L 841.00 543.00 L 841.00 4.00 ZM 354.50 498.97 C338.25,501.27 314.32,499.40 297.50,494.52 C246.54,479.74 202.57,438.18 187.00,390.10 C186.12,387.36 185.36,385.10 184.72,382.80 C181.00,369.57 181.01,355.30 181.02,242.72 C181.02,239.56 181.02,236.32 181.02,233.00 C181.02,226.31 181.02,219.95 181.02,213.90 C181.02,108.09 181.02,97.37 185.16,88.61 C185.86,87.12 186.68,85.69 187.65,83.85 C196.10,67.77 204.36,62.05 237.00,49.66 C248.51,45.30 253.89,43.56 254.37,44.04 C254.63,44.29 255.83,50.13 257.05,57.00 C258.27,63.88 259.70,70.04 260.22,70.71 C260.94,71.62 276.59,71.99 324.84,72.23 C387.19,72.54 388.66,72.60 396.50,74.79 C400.90,76.02 408.52,79.02 413.43,81.46 L 422.37 85.90 L 431.43 81.41 C449.61,72.40 446.86,72.69 519.17,72.26 C566.97,71.98 583.09,71.59 583.83,70.70 C584.68,69.67 585.72,64.64 588.70,47.25 C589.07,45.11 589.83,44.00 590.93,44.00 C593.91,44.00 630.78,58.62 636.58,62.11 C648.01,68.97 657.68,82.47 661.78,97.30 C663.37,103.01 663.50,113.67 663.50,233.00 C663.50,353.31 663.37,363.17 661.71,372.00 C650.11,433.46 599.25,483.50 534.00,497.64 C521.24,500.41 493.15,500.18 479.35,497.20 C464.69,494.03 450.26,488.76 436.14,481.42 C429.35,477.89 422.94,475.00 421.90,475.00 C420.87,475.00 416.09,477.26 411.27,480.02 C395.95,488.80 373.57,496.27 354.50,498.97 ZM 321.35 492.99 C351.74,496.13 385.01,488.66 412.41,472.52 L 421.97 466.90 L 429.74 471.62 C445.54,481.23 463.58,488.06 482.50,491.60 C494.80,493.90 521.37,493.89 533.00,491.58 C594.57,479.35 645.99,428.47 655.52,370.34 C657.70,357.00 657.68,107.51 655.49,98.23 C651.29,80.39 640.36,68.67 620.86,61.09 C616.26,59.31 609.12,56.53 605.00,54.92 C600.88,53.31 596.73,51.99 595.79,51.99 C594.03,52.00 592.77,55.37 591.49,63.50 C591.14,65.70 590.41,69.86 589.86,72.75 L 588.86 78.00 L 524.18 78.01 C463.27,78.01 459.02,78.13 451.27,79.99 C442.42,82.11 431.67,86.59 425.94,90.55 L 422.37 93.02 L 411.94 87.59 C393.76,78.13 398.81,78.67 322.04,78.04 L 254.57 77.50 L 252.46 66.22 C251.29,60.01 250.30,54.61 250.25,54.22 C250.20,53.82 249.51,53.09 248.73,52.60 C247.19,51.63 224.40,59.81 213.68,65.18 C206.62,68.72 196.01,79.07 192.66,85.68 C191.88,87.23 191.20,88.43 190.62,89.68 C186.98,97.45 186.99,106.92 187.00,213.14 C187.00,219.77 187.00,226.78 187.00,234.19 C187.00,363.06 187.06,367.28 188.98,375.76 C192.63,391.81 196.32,401.44 203.79,414.39 C228.86,457.87 274.08,488.10 321.35,492.99 ZM 461.16 234.13 L 460.50 241.50 L 422.22 241.76 C392.11,241.97 383.86,241.75 383.54,240.76 C383.31,240.07 382.97,236.53 382.78,232.90 C382.25,223.03 377.72,214.56 367.57,204.50 C355.58,192.61 343.76,186.45 321.50,180.50 C316.00,179.03 306.55,176.49 300.50,174.85 C294.45,173.21 284.36,170.53 278.07,168.89 C255.45,162.98 242.71,156.46 229.89,144.25 C214.51,129.60 209.58,112.13 216.84,98.06 C218.74,94.38 226.13,88.00 228.50,88.00 C229.24,88.00 230.15,89.40 230.52,91.11 C231.39,95.04 237.50,101.89 241.72,103.65 C244.31,104.74 258.18,105.00 312.92,105.00 C359.32,105.00 382.58,105.36 386.20,106.12 C397.98,108.61 412.54,117.96 418.84,127.07 C420.30,129.19 421.75,130.94 422.06,130.96 C422.37,130.98 424.14,128.98 426.00,126.50 C432.91,117.27 447.52,108.18 458.89,106.02 C462.22,105.39 490.09,105.00 531.92,105.00 L 599.58 105.00 L 604.03 102.75 C608.72,100.38 612.77,95.35 613.70,90.75 C614.33,87.60 615.01,87.44 618.90,89.45 C623.23,91.69 627.60,97.29 629.52,103.05 C635.72,121.73 620.49,145.68 593.92,159.04 C584.02,164.02 579.33,165.57 553.00,172.55 C541.17,175.69 526.69,179.53 520.82,181.10 C486.30,190.32 463.24,210.81 461.16,234.13 ZM 421.50 547.00 C758.03,547.00 843.00,546.75 843.00,545.75 C843.00,544.75 758.03,544.50 421.50,544.50 C84.98,544.50 0.01,544.75 0.00,545.75 C0.00,546.75 84.97,547.00 421.50,547.00 ZM 843.00 0.00 L 843.00 1.25 C843.00,0.25 758.03,0.00 421.50,0.00 Z" fill="rgb(5,29,82)"/>
<path d="M 321.35 492.99 C274.08,488.10 228.86,457.87 203.79,414.39 C196.32,401.44 192.63,391.81 188.98,375.76 C187.06,367.28 187.00,363.06 187.00,234.19 C187.00,226.78 187.00,219.77 187.00,213.14 L 187.00 213.14 C186.99,106.92 186.98,97.45 190.62,89.68 C191.20,88.43 191.88,87.23 192.66,85.68 C196.01,79.07 206.62,68.72 213.68,65.18 C224.40,59.81 247.19,51.63 248.73,52.60 C249.51,53.09 250.20,53.82 250.25,54.22 C250.30,54.61 251.29,60.01 252.46,66.22 L 254.57 77.50 L 322.04 78.04 C398.81,78.67 393.76,78.13 411.94,87.59 L 422.37 93.02 L 425.94 90.55 C431.67,86.59 442.42,82.11 451.27,79.99 C459.02,78.13 463.27,78.01 524.18,78.01 L 588.86 78.00 L 589.86 72.75 C590.41,69.86 591.14,65.70 591.49,63.50 C592.77,55.37 594.03,52.00 595.79,51.99 C596.73,51.99 600.88,53.31 605.00,54.92 C609.12,56.53 616.26,59.31 620.86,61.09 C640.36,68.67 651.29,80.39 655.49,98.23 C657.68,107.51 657.70,357.00 655.52,370.34 C645.99,428.47 594.57,479.35 533.00,491.58 C521.37,493.89 494.80,493.90 482.50,491.60 C463.58,488.06 445.54,481.23 429.74,471.62 L 421.97 466.90 L 412.41 472.52 C385.01,488.66 351.74,496.13 321.35,492.99 ZM 322.00 472.46 C333.42,474.19 335.64,474.19 349.00,472.50 C363.50,470.65 366.53,469.97 377.00,466.23 C391.72,460.96 404.50,454.00 415.70,445.14 C421.72,440.38 421.93,440.41 430.50,447.01 C453.95,465.10 490.24,476.12 516.37,473.10 C533.34,471.14 538.42,469.97 550.00,465.34 C571.37,456.81 587.43,445.84 603.37,428.91 C618.58,412.75 628.27,395.59 634.23,374.23 C636.35,366.65 636.40,364.93 636.73,284.50 C636.92,239.40 636.95,196.95 636.79,190.18 L 636.50 177.85 L 632.00 181.14 C622.40,188.15 617.23,191.36 610.21,194.65 C600.88,199.04 597.67,200.36 596.79,200.18 C595.40,199.88 576.94,208.94 571.28,212.68 C564.21,217.37 558.53,223.11 555.66,228.46 C553.51,232.47 553.50,233.00 553.00,307.50 L 552.50 382.50 L 467.00 383.02 L 467.00 279.00 L 376.00 279.00 L 376.00 383.00 L 291.00 383.00 L 290.93 310.25 C290.88,270.24 290.66,236.47 290.43,235.22 C289.80,231.86 285.56,223.88 282.85,220.96 C279.14,216.98 270.03,210.60 264.00,207.77 C255.47,203.77 246.55,199.88 246.00,199.93 C243.55,200.15 228.24,192.31 218.75,185.98 C212.29,181.67 207.00,178.67 206.99,179.32 C206.78,221.07 207.11,362.19 207.43,363.14 C207.68,363.89 208.12,366.44 208.42,368.81 C209.08,374.06 212.17,384.30 214.95,390.39 C216.08,392.87 217.00,395.14 217.00,395.45 C217.00,396.68 228.42,415.00 229.18,415.00 C229.63,415.00 230.00,415.50 230.00,416.11 C230.00,416.72 232.20,419.98 234.89,423.36 C247.75,439.52 270.22,455.94 290.87,464.25 C301.37,468.48 308.93,470.47 322.00,472.46 ZM 375.99 237.75 L 376.00 248.00 L 467.00 248.00 L 467.00 238.98 C467.00,231.09 467.38,229.12 470.00,223.34 C471.65,219.70 474.73,214.85 476.84,212.56 C478.95,210.26 481.09,207.72 481.59,206.91 C482.51,205.41 489.73,200.48 498.00,195.70 C505.30,191.48 519.41,187.09 558.50,176.88 C560.70,176.30 563.35,175.66 564.40,175.45 C565.44,175.23 567.69,174.61 569.40,174.07 C571.10,173.52 573.62,172.88 575.00,172.65 C583.31,171.23 605.47,160.10 611.84,154.15 C613.58,152.52 615.00,151.45 615.00,151.75 C615.00,152.88 619.41,148.33 624.61,141.84 C642.96,118.94 640.06,93.27 617.89,82.33 C610.92,78.89 609.80,78.97 608.83,83.00 C606.50,92.70 605.83,94.14 602.70,96.04 C599.61,97.92 597.12,97.99 531.50,98.01 C468.71,98.03 462.96,98.18 456.41,99.88 C446.02,102.58 437.02,107.40 429.90,114.09 C426.45,117.34 422.89,120.00 421.99,120.00 C421.10,120.00 419.05,118.61 417.44,116.92 C410.95,110.11 395.36,101.32 386.00,99.18 C384.62,98.87 351.85,98.46 313.17,98.28 C252.05,97.99 242.54,97.75 240.51,96.41 C237.84,94.66 235.00,88.32 235.00,84.10 C235.00,82.53 234.32,80.68 233.50,80.00 C232.38,79.07 232.00,79.06 232.00,79.94 C232.00,80.59 231.56,80.85 231.03,80.52 C230.50,80.19 228.58,80.67 226.78,81.60 C214.67,87.80 208.17,96.77 207.28,108.50 C206.57,117.91 208.04,124.13 213.11,133.08 C220.35,145.86 232.93,157.13 248.60,164.87 C255.54,168.30 263.16,171.33 265.17,171.46 C265.53,171.48 266.17,171.84 266.58,172.25 C267.00,172.66 268.19,173.00 269.23,173.00 C270.27,173.00 273.46,173.70 276.31,174.56 C279.17,175.42 283.30,176.57 285.50,177.13 C290.55,178.40 294.43,179.43 299.50,180.85 C301.70,181.46 309.58,183.59 317.00,185.58 C341.22,192.06 353.16,198.24 364.78,210.35 C373.87,219.81 375.98,224.97 375.99,237.75 Z" fill="rgb(160,169,173)"/>
<path d="M -0.00 545.75 C-0.00,544.75 84.97,544.50 421.50,544.50 C758.03,544.50 843.00,544.75 843.00,545.75 C843.00,546.75 758.03,547.00 421.50,547.00 C84.97,547.00 -0.00,546.75 -0.00,545.75 ZM 2.00 273.50 L 2.00 4.00 L 421.50 4.00 L 841.00 4.00 L 841.00 273.50 L 841.00 543.00 L 421.50 543.00 L 2.00 543.00 L 2.00 273.50 ZM 354.50 498.97 C373.57,496.27 395.95,488.80 411.27,480.02 C416.09,477.26 420.87,475.00 421.90,475.00 C422.94,475.00 429.35,477.89 436.14,481.42 C450.26,488.76 464.69,494.03 479.35,497.20 C493.15,500.18 521.24,500.41 534.00,497.64 C599.25,483.50 650.11,433.46 661.71,372.00 C663.37,363.17 663.50,353.31 663.50,233.00 C663.50,113.67 663.37,103.01 661.78,97.30 C657.68,82.47 648.01,68.97 636.58,62.11 C630.78,58.62 593.91,44.00 590.93,44.00 C589.83,44.00 589.07,45.11 588.70,47.25 C585.72,64.64 584.68,69.67 583.83,70.70 C583.09,71.59 566.97,71.98 519.17,72.26 C446.86,72.69 449.61,72.40 431.43,81.41 L 422.37 85.90 L 413.43 81.46 C408.52,79.02 400.90,76.02 396.50,74.79 C388.66,72.60 387.19,72.54 324.84,72.23 C276.59,71.99 260.94,71.62 260.22,70.71 C259.70,70.04 258.27,63.88 257.05,57.00 C255.83,50.13 254.63,44.29 254.37,44.04 C253.89,43.56 248.51,45.30 237.00,49.66 C204.36,62.05 196.10,67.77 187.65,83.85 C180.69,97.09 181.03,89.45 181.02,233.00 C181.01,374.97 180.86,371.12 187.00,390.10 C202.57,438.18 246.54,479.74 297.50,494.52 C314.32,499.40 338.25,501.27 354.50,498.97 ZM 0.00 2.12 L 0.00 0.00 L 421.50 0.00 C758.03,0.00 843.00,0.25 843.00,1.25 C843.00,2.25 758.44,2.45 422.86,2.25 C112.82,2.06 2.36,2.29 1.36,3.12 C0.29,4.01 0.00,3.79 0.00,2.12 ZM 322.00 472.46 C308.93,470.47 301.37,468.48 290.87,464.25 C270.22,455.94 247.75,439.52 234.89,423.36 C232.20,419.98 230.00,416.72 230.00,416.11 C230.00,415.50 229.63,415.00 229.18,415.00 C228.42,415.00 217.00,396.68 217.00,395.45 C217.00,395.14 216.08,392.87 214.95,390.39 C212.17,384.30 209.08,374.06 208.42,368.81 C208.12,366.44 207.68,363.89 207.43,363.14 C207.11,362.19 206.78,221.07 206.99,179.32 C207.00,178.67 212.29,181.67 218.75,185.98 C228.24,192.31 243.55,200.15 246.00,199.93 C246.55,199.88 255.47,203.77 264.00,207.77 C270.03,210.60 279.14,216.98 282.85,220.96 C285.56,223.88 289.80,231.86 290.43,235.22 C290.66,236.47 290.88,270.24 290.93,310.25 L 291.00 383.00 L 333.50 383.00 L 376.00 383.00 L 376.00 331.00 L 376.00 279.00 L 421.50 279.00 L 467.00 279.00 L 467.00 331.01 L 467.00 383.02 L 509.75 382.76 L 552.50 382.50 L 553.00 307.50 C553.50,233.00 553.51,232.47 555.66,228.46 C558.53,223.11 564.21,217.37 571.28,212.68 C576.94,208.94 595.40,199.88 596.79,200.18 C597.67,200.36 600.88,199.04 610.21,194.65 C617.23,191.36 622.40,188.15 632.00,181.14 L 636.50 177.85 L 636.79 190.18 C636.95,196.95 636.92,239.40 636.73,284.50 C636.40,364.93 636.35,366.65 634.23,374.23 C628.27,395.59 618.58,412.75 603.37,428.91 C587.43,445.84 571.37,456.81 550.00,465.34 C538.42,469.97 533.34,471.14 516.37,473.10 C490.24,476.12 453.95,465.10 430.50,447.01 C421.93,440.41 421.72,440.38 415.70,445.14 C404.50,454.00 391.72,460.96 377.00,466.23 C366.53,469.97 363.50,470.65 349.00,472.50 C335.64,474.19 333.42,474.19 322.00,472.46 ZM 360.11 464.94 C378.27,460.97 396.34,452.61 411.47,441.19 C416.34,437.51 420.87,434.09 421.54,433.58 C422.38,432.95 424.60,434.23 428.63,437.68 C444.19,450.99 465.38,461.08 487.04,465.51 C498.38,467.83 517.76,467.83 529.00,465.52 C572.89,456.50 610.62,424.25 625.38,383.16 C630.91,367.79 631.00,365.98 631.00,274.87 C631.00,215.97 630.68,191.00 629.93,191.00 C629.34,191.00 626.98,192.29 624.68,193.87 C618.55,198.07 611.39,201.51 597.53,206.91 C577.10,214.88 566.17,222.04 561.72,230.36 L 559.50 234.50 L 559.22 312.26 L 558.94 390.02 L 510.22 389.76 L 461.50 389.50 L 461.24 337.75 L 460.98 286.00 L 422.00 286.00 L 383.02 286.00 L 382.76 337.75 L 382.50 389.50 L 334.00 389.50 L 285.50 389.50 L 285.00 311.50 L 284.50 233.50 L 282.20 229.79 C276.83,221.16 265.79,214.05 246.08,206.53 C235.79,202.60 224.19,196.89 218.32,192.87 C216.02,191.29 213.86,190.00 213.52,190.00 C213.19,190.00 213.08,229.26 213.28,277.25 C213.68,370.81 213.52,367.80 218.81,383.00 C232.04,421.05 268.16,453.36 309.50,464.13 C325.54,468.30 343.39,468.59 360.11,464.94 ZM 375.99 237.75 C375.98,224.97 373.87,219.81 364.78,210.35 C353.16,198.24 341.22,192.06 317.00,185.58 C309.58,183.59 301.70,181.46 299.50,180.85 C294.43,179.43 290.55,178.40 285.50,177.13 C283.30,176.57 279.17,175.42 276.31,174.56 C273.46,173.70 270.27,173.00 269.23,173.00 C268.19,173.00 267.00,172.66 266.58,172.25 C266.17,171.84 265.53,171.48 265.17,171.46 C263.16,171.33 255.54,168.30 248.60,164.87 C232.93,157.13 220.35,145.86 213.11,133.08 C208.04,124.13 206.57,117.91 207.28,108.50 C208.17,96.77 214.67,87.80 226.78,81.60 C228.58,80.67 230.50,80.19 231.03,80.52 C231.56,80.85 232.00,80.59 232.00,79.94 C232.00,79.06 232.38,79.07 233.50,80.00 C234.32,80.68 235.00,82.53 235.00,84.10 C235.00,88.32 237.84,94.66 240.51,96.41 C242.54,97.75 252.05,97.99 313.17,98.28 C351.85,98.46 384.62,98.87 386.00,99.18 C395.36,101.32 410.95,110.11 417.44,116.92 C419.05,118.61 421.10,120.00 421.99,120.00 C422.89,120.00 426.45,117.34 429.90,114.09 C437.02,107.40 446.02,102.58 456.41,99.88 C462.96,98.18 468.71,98.03 531.50,98.01 C597.12,97.99 599.61,97.92 602.70,96.04 C605.83,94.14 606.50,92.70 608.83,83.00 C609.80,78.97 610.92,78.89 617.89,82.33 C640.06,93.27 642.96,118.94 624.61,141.84 C619.41,148.33 615.00,152.88 615.00,151.75 C615.00,151.45 613.58,152.52 611.84,154.15 C605.47,160.10 583.31,171.23 575.00,172.65 C573.62,172.88 571.10,173.52 569.40,174.07 C567.69,174.61 565.44,175.23 564.40,175.45 C563.35,175.66 560.70,176.30 558.50,176.88 C519.41,187.09 505.30,191.48 498.00,195.70 C489.73,200.48 482.51,205.41 481.59,206.91 C481.09,207.72 478.95,210.26 476.84,212.56 C474.73,214.85 471.65,219.70 470.00,223.34 C467.38,229.12 467.00,231.09 467.00,238.98 L 467.00 248.00 L 421.50 248.00 L 376.00 248.00 L 375.99 237.75 ZM 461.16 234.13 C463.24,210.81 486.30,190.32 520.82,181.10 C526.69,179.53 541.17,175.69 553.00,172.55 C579.33,165.57 584.02,164.02 593.92,159.04 C620.49,145.68 635.72,121.73 629.52,103.05 C627.60,97.29 623.23,91.69 618.90,89.45 C615.01,87.44 614.33,87.60 613.70,90.75 C612.77,95.35 608.72,100.38 604.03,102.75 L 599.58 105.00 L 531.92 105.00 C490.09,105.00 462.22,105.39 458.89,106.02 C447.52,108.18 432.91,117.27 426.00,126.50 C424.14,128.98 422.37,130.98 422.06,130.96 C421.75,130.94 420.30,129.19 418.84,127.07 C412.54,117.96 397.98,108.61 386.20,106.12 C382.58,105.36 359.32,105.00 312.92,105.00 C258.18,105.00 244.31,104.74 241.72,103.65 C237.50,101.89 231.39,95.04 230.52,91.11 C230.15,89.40 229.24,88.00 228.50,88.00 C226.13,88.00 218.74,94.38 216.84,98.06 C209.58,112.13 214.51,129.60 229.89,144.25 C242.71,156.46 255.45,162.98 278.07,168.89 C284.36,170.53 294.45,173.21 300.50,174.85 C306.55,176.49 316.00,179.03 321.50,180.50 C343.76,186.45 355.58,192.61 367.57,204.50 C377.72,214.56 382.25,223.03 382.78,232.90 C382.97,236.53 383.31,240.07 383.54,240.76 C383.86,241.75 392.11,241.97 422.22,241.76 L 460.50 241.50 L 461.16 234.13 Z" fill="rgb(254,254,254)"/>
</g>
</svg>